<svg viewBox="0 0 48 48" xmlns="http://www.w3.org/2000/svg">
<path d="M24.335 3C36.0692 3 45.67 12.6007 45.67 24.335C45.67 36.0692 36.0692 45.67 24.335 45.67C12.6007 45.67 3 36.0692 3 24.335C3 12.6007 12.6007 3 24.335 3ZM30.5648 26.0631C28.2606 26.0631 26.3618 27.6633 25.8498 29.7968C24.6977 29.3061 23.6096 29.4341 22.8202 29.7754C22.3082 27.6419 20.388 26.0631 18.1052 26.0631C15.4383 26.0631 13.2835 28.218 13.2835 30.8848C13.2835 33.5517 15.4383 35.7066 18.1052 35.7066C20.6654 35.7066 22.7135 33.7651 22.9056 31.2689C23.3323 30.9915 24.4203 30.4368 25.7644 31.2902C25.8544 32.5398 26.4276 33.7052 27.3625 34.5392C28.2975 35.3732 29.5205 35.8102 30.7722 35.7575C32.024 35.7048 33.2059 35.1665 34.0674 34.2568C34.9288 33.3471 35.402 32.1376 35.3865 30.8848C35.3865 28.218 33.2317 26.0631 30.5648 26.0631ZM18.1052 27.4286C20.068 27.4286 21.5614 28.986 21.5614 30.8848C21.5614 32.7837 20.068 34.3411 18.1052 34.3411C16.2064 34.3411 14.6489 32.7837 14.6489 30.8848C14.6489 28.986 16.2064 27.4286 18.1052 27.4286ZM30.5648 27.4286C32.4636 27.4286 34.0211 28.986 34.0211 30.8848C34.0211 32.7837 32.4636 34.3411 30.5648 34.3411C28.602 34.3411 27.1085 32.7837 27.1085 30.8848C27.1085 28.986 28.602 27.4286 30.5648 27.4286ZM36.7733 23.2682H11.8967V24.6977H36.7733V23.2682ZM28.922 13.4328C28.7767 13.1216 28.5245 12.8728 28.2112 12.7319C27.898 12.5909 27.5445 12.5671 27.2152 12.6648L24.335 13.6675L21.4548 12.6648L21.3694 12.6007C21.0337 12.5286 20.6832 12.5794 20.3817 12.7438C20.0802 12.9083 19.8478 13.1755 19.7266 13.4968L16.5691 21.8388H32.1009L28.9434 13.4968L28.922 13.4328Z" />
</svg>
