<svg viewBox="0 0 48 48" xmlns="http://www.w3.org/2000/svg">
<path d="M24.0001 2.66675C19.7808 2.66675 15.6562 3.91793 12.1479 6.26206C8.63968 8.6062 5.90533 11.938 4.29066 15.8362C2.67599 19.7343 2.25352 24.0237 3.07667 28.162C3.89982 32.3003 5.93163 36.1015 8.91515 39.085C11.8987 42.0685 15.6999 44.1003 19.8382 44.9235C23.9764 45.7467 28.2658 45.3242 32.164 43.7095C36.0622 42.0948 39.394 39.3605 41.7381 35.8522C44.0822 32.344 45.3334 28.2194 45.3334 24.0001C45.3334 18.3421 43.0858 12.9159 39.085 8.91514C35.0843 4.91436 29.658 2.66675 24.0001 2.66675ZM33.4001 30.7467C33.4001 31.1004 33.2596 31.4395 33.0096 31.6896C32.7595 31.9396 32.4204 32.0801 32.0668 32.0801H16.0668C15.7131 32.0801 15.374 31.9396 15.1239 31.6896C14.8739 31.4395 14.7334 31.1004 14.7334 30.7467C14.7334 30.3931 14.8739 30.054 15.1239 29.8039C15.374 29.5539 15.7131 29.4134 16.0668 29.4134H32.0668C32.4204 29.4134 32.7595 29.5539 33.0096 29.8039C33.2596 30.054 33.4001 30.3931 33.4001 30.7467ZM36.0001 19.0401C36.0001 19.5148 35.8593 19.9788 35.5956 20.3734C35.3319 20.7681 34.9571 21.0757 34.5185 21.2574C34.08 21.439 33.5974 21.4866 33.1319 21.394C32.6663 21.3014 32.2387 21.0728 31.903 20.7371C31.5674 20.4015 31.3388 19.9739 31.2462 19.5083C31.1536 19.0427 31.2011 18.5602 31.3828 18.1216C31.5644 17.6831 31.872 17.3083 32.2667 17.0446C32.6614 16.7808 33.1254 16.6401 33.6001 16.6401C34.2366 16.6401 34.8471 16.8929 35.2971 17.343C35.7472 17.7931 36.0001 18.4036 36.0001 19.0401ZM14.9334 21.4401C14.4587 21.4401 13.9947 21.2993 13.6001 21.0356C13.2054 20.7719 12.8978 20.3971 12.7161 19.9585C12.5345 19.52 12.4869 19.0374 12.5795 18.5719C12.6721 18.1063 12.9007 17.6787 13.2364 17.343C13.572 17.0074 13.9997 16.7788 14.4652 16.6862C14.9308 16.5936 15.4133 16.6411 15.8519 16.8228C16.2904 17.0044 16.6652 17.312 16.929 17.7067C17.1927 18.1014 17.3334 18.5654 17.3334 19.0401C17.3335 19.3598 17.2697 19.6763 17.1458 19.971C17.0218 20.2657 16.8403 20.5327 16.6117 20.7563C16.3832 20.9798 16.1123 21.1555 15.8149 21.2729C15.5176 21.3904 15.1997 21.4472 14.8801 21.4401H14.9334Z" />
</svg>
