<svg viewBox="0 0 36 36" xmlns="http://www.w3.org/2000/svg">
<path d="M3.87897 2.36932C3.69064 2.27513 3.47966 2.23568 3.27003 2.25547C3.06039 2.27525 2.86052 2.35347 2.69314 2.48123C2.52576 2.60899 2.3976 2.78116 2.32323 2.97816C2.24887 3.17516 2.23128 3.38907 2.27247 3.59557L5.42922 14.5081C5.48808 14.7114 5.60313 14.8941 5.76114 15.035C5.91916 15.1759 6.11372 15.2693 6.32247 15.3046L19.125 17.4488C19.728 17.5681 19.728 18.4321 19.125 18.5513L6.32247 20.6956C6.11372 20.7308 5.91916 20.8243 5.76114 20.9652C5.60313 21.1061 5.48808 21.2887 5.42922 21.4921L2.27247 32.4046C2.23128 32.6111 2.24887 32.825 2.32323 33.022C2.3976 33.219 2.52576 33.3911 2.69314 33.5189C2.86052 33.6467 3.06039 33.7249 3.27003 33.7447C3.47966 33.7645 3.69064 33.725 3.87897 33.6308L33.129 19.0058C33.3156 18.9123 33.4725 18.7687 33.5822 18.5911C33.6918 18.4134 33.7499 18.2088 33.7499 18.0001C33.7499 17.7913 33.6918 17.5867 33.5822 17.4091C33.4725 17.2315 33.3156 17.0878 33.129 16.9943L3.87897 2.36932Z" />
</svg>
