<svg viewBox="0 0 36 36" xmlns="http://www.w3.org/2000/svg">
<path d="M20.73 33H15.27C14.9279 33.0001 14.5961 32.8832 14.3295 32.6687C14.063 32.4543 13.8777 32.1552 13.8045 31.821L13.194 28.995C12.3796 28.6382 11.6074 28.1919 10.8915 27.6645L8.13601 28.542C7.80985 28.646 7.45793 28.6353 7.13869 28.5117C6.81945 28.3881 6.55209 28.159 6.38101 27.8625L3.64501 23.136C3.47573 22.8392 3.41218 22.4937 3.46477 22.1561C3.51736 21.8185 3.68297 21.5087 3.93451 21.2775L6.07201 19.3275C5.97481 18.4442 5.97481 17.5528 6.07201 16.6695L3.93451 14.724C3.68262 14.4927 3.51678 14.1826 3.46418 13.8447C3.41158 13.5067 3.47534 13.161 3.64501 12.864L6.37501 8.1345C6.54609 7.83797 6.81345 7.60889 7.13269 7.48528C7.45193 7.36168 7.80385 7.35099 8.13001 7.455L10.8855 8.3325C11.2515 8.0625 11.6325 7.8105 12.0255 7.5825C12.405 7.3695 12.795 7.176 13.194 7.0035L13.806 4.1805C13.8789 3.8463 14.0638 3.54703 14.33 3.33232C14.5963 3.11761 14.928 3.00036 15.27 3H20.73C21.0721 3.00036 21.4037 3.11761 21.67 3.33232C21.9363 3.54703 22.1212 3.8463 22.194 4.1805L22.812 7.005C23.232 7.191 23.643 7.3995 24.0405 7.632C24.411 7.8465 24.7695 8.082 25.1145 8.3355L27.8715 7.458C28.1975 7.35437 28.549 7.36526 28.868 7.48884C29.1869 7.61243 29.454 7.84129 29.625 8.1375L32.355 12.867C32.703 13.4775 32.583 14.25 32.0655 14.7255L29.928 16.6755C30.0252 17.5588 30.0252 18.4502 29.928 19.3335L32.0655 21.2835C32.583 21.7605 32.703 22.5315 32.355 23.142L29.625 27.8715C29.4539 28.168 29.1866 28.3971 28.8673 28.5207C28.5481 28.6443 28.1962 28.655 27.87 28.551L25.1145 27.6735C24.3992 28.2005 23.6275 28.6463 22.8135 29.0025L22.194 31.821C22.1209 32.1549 21.9358 32.4538 21.6696 32.6683C21.4034 32.8827 21.0719 32.9997 20.73 33ZM17.994 12C16.4027 12 14.8766 12.6321 13.7514 13.7574C12.6262 14.8826 11.994 16.4087 11.994 18C11.994 19.5913 12.6262 21.1174 13.7514 22.2426C14.8766 23.3679 16.4027 24 17.994 24C19.5853 24 21.1114 23.3679 22.2367 22.2426C23.3619 21.1174 23.994 19.5913 23.994 18C23.994 16.4087 23.3619 14.8826 22.2367 13.7574C21.1114 12.6321 19.5853 12 17.994 12Z" />
</svg>
