<svg viewBox="0 0 48 48" xmlns="http://www.w3.org/2000/svg">
<path d="M24.0001 2.66675C19.7808 2.66675 15.6562 3.91793 12.1479 6.26206C8.63968 8.6062 5.90533 11.938 4.29066 15.8362C2.67599 19.7343 2.25352 24.0237 3.07667 28.162C3.89982 32.3003 5.93163 36.1015 8.91515 39.085C11.8987 42.0685 15.6999 44.1003 19.8382 44.9235C23.9764 45.7467 28.2658 45.3242 32.164 43.7095C36.0622 42.0948 39.394 39.3605 41.7381 35.8522C44.0822 32.344 45.3334 28.2194 45.3334 24.0001C45.3334 18.3421 43.0858 12.9159 39.085 8.91514C35.0843 4.91436 29.658 2.66675 24.0001 2.66675ZM11.8534 18.5201C11.8534 17.9927 12.0098 17.4771 12.3028 17.0386C12.5959 16.6 13.0123 16.2582 13.4996 16.0564C13.9869 15.8546 14.523 15.8018 15.0403 15.9047C15.5576 16.0075 16.0328 16.2615 16.4057 16.6345C16.7786 17.0074 17.0326 17.4826 17.1355 17.9998C17.2384 18.5171 17.1856 19.0533 16.9838 19.5406C16.7819 20.0278 16.4401 20.4443 16.0016 20.7373C15.5631 21.0303 15.0475 21.1867 14.5201 21.1867C13.8128 21.1867 13.1346 20.9058 12.6345 20.4057C12.1344 19.9056 11.8534 19.2273 11.8534 18.5201ZM24.1734 37.6134C21.7274 37.6166 19.3434 36.8439 17.3644 35.4063C15.3854 33.9688 13.9134 31.9406 13.1601 29.6134H35.1734C34.4209 31.9384 32.9508 33.9651 30.9745 35.4024C28.9982 36.8397 26.6172 37.6138 24.1734 37.6134ZM33.4134 21.1867C32.886 21.1867 32.3704 21.0303 31.9319 20.7373C31.4934 20.4443 31.1516 20.0278 30.9497 19.5406C30.7479 19.0533 30.6951 18.5171 30.798 17.9998C30.9009 17.4826 31.1549 17.0074 31.5278 16.6345C31.9007 16.2615 32.3759 16.0075 32.8932 15.9047C33.4105 15.8018 33.9466 15.8546 34.4339 16.0564C34.9212 16.2582 35.3377 16.6 35.6307 17.0386C35.9237 17.4771 36.0801 17.9927 36.0801 18.5201C36.0801 18.8714 36.0107 19.2193 35.8758 19.5437C35.741 19.8681 35.5434 20.1626 35.2943 20.4104C35.0453 20.6582 34.7497 20.8544 34.4247 20.9876C34.0996 21.1208 33.7514 21.1885 33.4001 21.1867H33.4134Z" />
</svg>
