<svg viewBox="0 0 48 48" xmlns="http://www.w3.org/2000/svg">
<g clip-path="url(#clip0_27_1341)">
<path d="M24.335 3C21.4459 3 18.6807 3.56415 16.0395 4.69244C13.3982 5.82073 11.1288 7.33367 9.23126 9.23126C7.33367 11.1288 5.82073 13.3982 4.69244 16.0395C3.56415 18.6807 3 21.4459 3 24.335C3 27.2241 3.56415 29.9893 4.69244 32.6305C5.82073 35.2718 7.33367 37.5412 9.23126 39.4387C11.1288 41.3363 13.3982 42.8493 16.0395 43.9776C18.6807 45.1059 21.4459 45.67 24.335 45.67C27.2241 45.67 29.9893 45.1059 32.6305 43.9776C35.2718 42.8493 37.5412 41.3363 39.4387 39.4387C41.3363 37.5412 42.8493 35.2718 43.9776 32.6305C45.1059 29.9893 45.67 27.2241 45.67 24.335C45.67 21.4459 45.1059 18.6807 43.9776 16.0395C42.8493 13.3982 41.3363 11.1288 39.4387 9.23126C37.5412 7.33367 35.2718 5.82073 32.6305 4.69244C29.9893 3.56415 27.2241 3 24.335 3ZM27.6173 16.1292L29.2585 14.4881L32.5408 17.7704L35.8231 14.4881L37.4642 16.1292L34.1819 19.4115L37.4642 22.6938L35.8231 24.335L32.5408 21.0527L29.2585 24.335L27.6173 22.6938L30.8996 19.4115L27.6173 16.1292ZM24.335 32.5408L20.2321 36.6437L16.1292 32.5408L12.8469 35.8231L11.2058 34.1819L16.2062 29.2585L20.2321 33.3613L24.335 29.2585L28.4379 33.3613L32.5408 29.2585L37.4642 34.1819L35.8231 35.8231L32.5408 32.5408L28.4379 36.6437L24.335 32.5408ZM21.0527 16.1292L17.7704 19.4115L21.0527 22.6938L19.4115 24.335L16.1292 21.0527L12.8469 24.335L11.2058 22.6938L14.4881 19.4115L11.2058 16.1292L12.8469 14.4881L16.1292 17.7704L19.4115 14.4881L21.0527 16.1292Z" />
</g>
<defs>
<clipPath id="clip0_27_1341">
<rect width="42.67" height="42.67" fill="white" transform="translate(3 3)"/>
</clipPath>
</defs>
</svg>
